<svg id="Layer_1" height="512" viewBox="0 0 32 32" width="512" xmlns="http://www.w3.org/2000/svg" data-name="Layer 1"><path d="m26.951 12.033a10.012 10.012 0 0 0 -9.951-9.033h-2a10.012 10.012 0 0 0 -9.951 9.033 4.364 4.364 0 0 0 -4.049 4.34v3.254a4.378 4.378 0 0 0 4.373 4.373h2.627a1 1 0 0 0 1-1v-10a1 1 0 0 0 -1-1h-.931a8.008 8.008 0 0 1 7.931-7h2a8.008 8.008 0 0 1 7.931 7h-.931a1 1 0 0 0 -1 1v10a1 1 0 0 0 1 1h.858a4 4 0 0 1 -3.858 3h-2v-1a1 1 0 0 0 -2 0v2a1 1 0 0 0 1 1h3a6 6 0 0 0 5.914-5.029 4.366 4.366 0 0 0 4.086-4.344v-3.254a4.364 4.364 0 0 0 -4.049-4.34zm-19.951 9.967h-1.627a2.375 2.375 0 0 1 -2.373-2.373v-3.254a2.375 2.375 0 0 1 2.373-2.373h1.627zm22-2.373a2.375 2.375 0 0 1 -2.373 2.373h-1.627v-8h1.627a2.375 2.375 0 0 1 2.373 2.373z" fill="rgb(0,0,0)"/></svg>